<svg width="16" height="16" xmlns="http://www.w3.org/2000/svg"><path d="M5.032 14.5c6.037 0 9.34-5.002 9.34-9.34 0-.142 0-.283-.01-.424A6.679 6.679 0 0016 3.037a6.55 6.55 0 01-1.885.517 3.294 3.294 0 001.443-1.816 6.579 6.579 0 01-2.085.797A3.286 3.286 0 007.88 5.528 9.32 9.32 0 011.114 2.1 3.285 3.285 0 002.13 6.481 3.258 3.258 0 01.64 6.07v.041A3.284 3.284 0 003.274 9.33c-.484.132-.99.151-1.483.056a3.286 3.286 0 003.067 2.28A6.587 6.587 0 010 13.025a9.294 9.294 0 005.032 1.472" fill="#FFF"/></svg>